<svg xmlns="http://www.w3.org/2000/svg" width="800" height="500" viewBox="0 0 800 500">
  <defs>
    <linearGradient id="bg" x1="0%" y1="0%" x2="100%" y2="100%">
      <stop offset="0%" style="stop-color:#FDF0F5"/>
      <stop offset="100%" style="stop-color:#E8F4FD"/>
    </linearGradient>
  </defs>
  <rect width="800" height="500" fill="url(#bg)"/>
  <!-- Heart hands -->
  <g transform="translate(400, 200)">
    <circle cx="0" cy="0" r="90" fill="#F7A81B" opacity="0.1"/>
    <path d="M-30,-10 Q-30,-35 -10,-35 Q10,-35 10,-10 L-10,20Z" fill="#E74C3C" opacity="0.6"/>
    <path d="M10,-10 Q10,-35 30,-35 Q50,-35 50,-10 L30,20 L10,20Z" fill="#E74C3C" opacity="0.6"/>
  </g>
  <!-- Women silhouettes -->
  <g transform="translate(250, 310)" opacity="0.5">
    <circle cx="0" cy="0" r="18" fill="#003366"/>
    <rect x="-14" y="20" width="28" height="40" fill="#003366" rx="8"/>
  </g>
  <g transform="translate(330, 300)" opacity="0.4">
    <circle cx="0" cy="0" r="20" fill="#F7A81B"/>
    <rect x="-15" y="22" width="30" height="45" fill="#F7A81B" rx="8"/>
  </g>
  <g transform="translate(400, 315)" opacity="0.5">
    <circle cx="0" cy="0" r="17" fill="#E74C3C"/>
    <rect x="-13" y="19" width="26" height="38" fill="#E74C3C" rx="7"/>
  </g>
  <g transform="translate(470, 305)" opacity="0.4">
    <circle cx="0" cy="0" r="19" fill="#003366"/>
    <rect x="-14" y="21" width="28" height="42" fill="#003366" rx="8"/>
  </g>
  <g transform="translate(550, 312)" opacity="0.5">
    <circle cx="0" cy="0" r="16" fill="#F7A81B"/>
    <rect x="-12" y="18" width="24" height="36" fill="#F7A81B" rx="7"/>
  </g>
  <!-- Gift boxes -->
  <g transform="translate(170, 380)" opacity="0.5">
    <rect x="0" y="0" width="35" height="30" fill="#F7A81B" rx="3"/>
    <rect x="14" y="-8" width="7" height="38" fill="#E74C3C" rx="2"/>
    <rect x="0" y="10" width="35" height="7" fill="#E74C3C" rx="2"/>
  </g>
  <g transform="translate(600, 375)" opacity="0.4">
    <rect x="0" y="0" width="40" height="35" fill="#003366" rx="3"/>
    <rect x="16" y="-10" width="8" height="45" fill="#F7A81B" rx="2"/>
    <rect x="0" y="12" width="40" height="8" fill="#F7A81B" rx="2"/>
  </g>
  <!-- Decorative flowers -->
  <circle cx="150" cy="150" r="8" fill="#E74C3C" opacity="0.3"/>
  <circle cx="140" cy="140" r="8" fill="#E74C3C" opacity="0.3"/>
  <circle cx="160" cy="140" r="8" fill="#E74C3C" opacity="0.3"/>
  <circle cx="150" cy="130" r="8" fill="#E74C3C" opacity="0.3"/>
  <circle cx="150" cy="142" r="5" fill="#F7A81B" opacity="0.4"/>
  <circle cx="650" cy="120" r="8" fill="#F7A81B" opacity="0.3"/>
  <circle cx="640" cy="110" r="8" fill="#F7A81B" opacity="0.3"/>
  <circle cx="660" cy="110" r="8" fill="#F7A81B" opacity="0.3"/>
  <circle cx="650" cy="100" r="8" fill="#F7A81B" opacity="0.3"/>
  <circle cx="650" cy="112" r="5" fill="#E74C3C" opacity="0.4"/>
</svg>
