<svg xmlns="http://www.w3.org/2000/svg" width="800" height="500" viewBox="0 0 800 500">
  <defs>
    <linearGradient id="bg" x1="0%" y1="0%" x2="100%" y2="100%">
      <stop offset="0%" style="stop-color:#FFF8E7"/>
      <stop offset="100%" style="stop-color:#E8F4FD"/>
    </linearGradient>
  </defs>
  <rect width="800" height="500" fill="url(#bg)"/>
  <!-- Bookshelf -->
  <rect x="200" y="120" width="400" height="280" fill="#8B6914" opacity="0.3" rx="4"/>
  <!-- Shelves -->
  <rect x="210" y="195" width="380" height="6" fill="#8B6914" opacity="0.5"/>
  <rect x="210" y="270" width="380" height="6" fill="#8B6914" opacity="0.5"/>
  <rect x="210" y="345" width="380" height="6" fill="#8B6914" opacity="0.5"/>
  <!-- Books row 1 -->
  <rect x="220" y="140" width="20" height="52" fill="#003366" rx="2"/>
  <rect x="244" y="145" width="18" height="47" fill="#E74C3C" rx="2"/>
  <rect x="266" y="138" width="22" height="54" fill="#F7A81B" rx="2"/>
  <rect x="292" y="142" width="16" height="50" fill="#10B981" rx="2"/>
  <rect x="312" y="140" width="24" height="52" fill="#003366" rx="2" opacity="0.7"/>
  <rect x="340" y="144" width="18" height="48" fill="#9B59B6" rx="2"/>
  <rect x="362" y="138" width="20" height="54" fill="#E74C3C" rx="2" opacity="0.7"/>
  <rect x="386" y="142" width="22" height="50" fill="#F7A81B" rx="2" opacity="0.8"/>
  <rect x="412" y="140" width="16" height="52" fill="#003366" rx="2" opacity="0.5"/>
  <rect x="432" y="136" width="24" height="56" fill="#10B981" rx="2" opacity="0.7"/>
  <rect x="460" y="143" width="18" height="49" fill="#E74C3C" rx="2" opacity="0.6"/>
  <rect x="482" y="139" width="20" height="53" fill="#3498DB" rx="2"/>
  <rect x="506" y="142" width="22" height="50" fill="#F7A81B" rx="2" opacity="0.6"/>
  <rect x="532" y="138" width="18" height="54" fill="#9B59B6" rx="2" opacity="0.5"/>
  <rect x="554" y="141" width="24" height="51" fill="#003366" rx="2" opacity="0.8"/>
  <!-- Books row 2 -->
  <rect x="220" y="215" width="22" height="52" fill="#F7A81B" rx="2" opacity="0.8"/>
  <rect x="246" y="218" width="18" height="49" fill="#003366" rx="2" opacity="0.6"/>
  <rect x="268" y="213" width="24" height="54" fill="#E74C3C" rx="2" opacity="0.7"/>
  <rect x="296" y="216" width="20" height="51" fill="#10B981" rx="2" opacity="0.8"/>
  <rect x="320" y="212" width="16" height="55" fill="#3498DB" rx="2"/>
  <rect x="340" y="218" width="22" height="49" fill="#F7A81B" rx="2" opacity="0.6"/>
  <rect x="366" y="214" width="18" height="53" fill="#9B59B6" rx="2" opacity="0.7"/>
  <rect x="388" y="217" width="24" height="50" fill="#003366" rx="2" opacity="0.5"/>
  <rect x="416" y="213" width="20" height="54" fill="#E74C3C" rx="2" opacity="0.8"/>
  <rect x="440" y="215" width="22" height="52" fill="#10B981" rx="2" opacity="0.6"/>
  <rect x="466" y="218" width="16" height="49" fill="#F7A81B" rx="2" opacity="0.7"/>
  <rect x="486" y="212" width="24" height="55" fill="#003366" rx="2" opacity="0.7"/>
  <!-- Books row 3 -->
  <rect x="220" y="290" width="20" height="52" fill="#3498DB" rx="2" opacity="0.7"/>
  <rect x="244" y="293" width="22" height="49" fill="#F7A81B" rx="2"/>
  <rect x="270" y="288" width="18" height="54" fill="#003366" rx="2" opacity="0.8"/>
  <rect x="292" y="291" width="24" height="51" fill="#E74C3C" rx="2" opacity="0.6"/>
  <rect x="320" y="289" width="16" height="53" fill="#10B981" rx="2" opacity="0.7"/>
  <rect x="340" y="292" width="22" height="50" fill="#9B59B6" rx="2" opacity="0.5"/>
  <rect x="366" y="288" width="20" height="54" fill="#F7A81B" rx="2" opacity="0.7"/>
  <rect x="390" y="291" width="18" height="51" fill="#003366" rx="2" opacity="0.6"/>
  <rect x="412" y="287" width="24" height="55" fill="#E74C3C" rx="2" opacity="0.8"/>
  <rect x="440" y="290" width="22" height="52" fill="#3498DB" rx="2" opacity="0.6"/>
  <!-- Reading child -->
  <g transform="translate(130, 350)" opacity="0.5">
    <circle cx="0" cy="0" r="18" fill="#003366"/>
    <rect x="-14" y="20" width="28" height="35" fill="#003366" rx="6"/>
    <rect x="16" y="25" width="30" height="22" fill="#F7A81B" rx="3"/>
  </g>
  <!-- Open book -->
  <g transform="translate(400, 440)">
    <path d="M-40,0 Q-20,-15 0,-5" fill="#F7A81B" opacity="0.5"/>
    <path d="M40,0 Q20,-15 0,-5" fill="#F7A81B" opacity="0.4"/>
    <line x1="0" y1="-5" x2="0" y2="5" stroke="#8B6914" stroke-width="1" opacity="0.5"/>
  </g>
</svg>
