<svg xmlns="http://www.w3.org/2000/svg" viewBox="0 0 383.2305 143.9985"><g id="Layer_2" data-name="Layer 2"><g id="Layer_1-2" data-name="Layer 1"><path d="M111.625,88.8057l.2657,5.1347a1.5556,1.5556,0,0,1-1.2578,1.6,46.5056,46.5056,0,0,1-7.0249.8887c-9.4131,0-12.28-3.6035-12.28-15.3965V63.0166H87.7188a1.5555,1.5555,0,0,1-1.5547-1.5557V56.1318a1.5466,1.5466,0,0,1,1.5547-1.5459h3.6089V48.25a1.546,1.546,0,0,1,1.1782-1.5108L98.7417,45.22a1.5579,1.5579,0,0,1,1.9224,1.5059v7.86h9.4976a1.54,1.54,0,0,1,1.5493,1.5459v5.3291a1.5488,1.5488,0,0,1-1.5493,1.5557h-9.4976V79.72c0,5.7793.2026,7.7813,4.2559,7.7813,1.4941,0,3.83-.1055,5.0879-.166a1.5622,1.5622,0,0,1,1.6171,1.4707M82.1641,74.81c0,14.8828-5.6562,21.5234-18.3364,21.5234-12.7417,0-18.4258-6.6406-18.4258-21.5234,0-14.6661,5.6841-21.2071,18.4258-21.2071,12.5083,0,18.3364,6.7334,18.3364,21.2071m-9.4922,0c0-9.14-2.4839-12.6915-8.8442-12.6915-6.5918,0-8.9287,3.3184-8.9287,12.6915,0,8.4961,1.4209,13.0937,8.9287,13.0937,7.3911,0,8.8442-4.8008,8.8442-13.0937m148.85-19.6231a1.5273,1.5273,0,0,0-1.2265-.6006h-6.0528a1.5576,1.5576,0,0,0-1.5,1.1494l-8.1191,30.6153H204l-8.125-30.6153a1.5529,1.5529,0,0,0-1.5019-1.1494h-6.0454a1.547,1.547,0,0,0-1.5078,1.9346l8.9419,34.332c.4453,1.7032,2.0195,4.5879,5.1367,4.5879h1.7324c-.1484.5723-.31,1.1875-.4824,1.7149l-.08.26c-.4844,1.5821-1.2129,3.9766-5.6309,3.9766l-7.7368-.4746a1.4667,1.4667,0,0,0-1.17.4355,1.541,1.541,0,0,0-.4722,1.18l.1895,4.0528a1.55,1.55,0,0,0,1.1816,1.43,59.0483,59.0483,0,0,0,10.211,1.3593c.1718.0117.3281.0117.4922.0117,5.8359,0,9.7929-3.7773,11.789-11.2089,2.32-8.7032,5.2188-19.9024,7.334-28.08.959-3.6807,1.7813-6.8535,2.377-9.1114l1.164-4.455a1.5685,1.5685,0,0,0-.2754-1.3438M39.7129,93.2627a1.5779,1.5779,0,0,1-.1172,1.4727,1.5514,1.5514,0,0,1-1.3046.705H31.0489a1.5411,1.5411,0,0,1-1.4141-.9238L20.36,73.6475c-4.6138-.0313-8.6182-.2774-10.78-.43V93.89A1.545,1.545,0,0,1,8.0328,95.44H1.5567A1.5506,1.5506,0,0,1,0,93.89V41.541A1.55,1.55,0,0,1,1.3829,40a161.1922,161.1922,0,0,1,17.4218-1.0361c.8511,0,1.3052.0058,1.3052.0058,15.939,0,19.2891,9.4141,19.2891,17.3008,0,6.5879-3.147,11.3477-9.6162,14.5567ZM20.0777,47.9551H16.6641a37.2757,37.2757,0,0,0-7.084.5068V64.6006c1.8218.1269,5.3257.3135,10.0449.2617,6.086-.0625,9.8609-3.2949,9.8609-8.4238,0-4.1016-2.47-8.4834-9.4082-8.4834m129.6333,19.48V94.5264a1.5508,1.5508,0,0,1-1.7661,1.5371,11.5645,11.5645,0,0,1-6.1792-2.5879c-.063.0254-7.0777,2.8574-13.3438,2.8574-7.5469,0-11.875-4.7637-11.875-13.0879,0-8.1289,3.961-11.7265,13.68-12.4521l10.1484-.8155V67.5147c0-3.1172-1.851-4.91-5.0781-4.91-4.4453,0-10.789.5225-14.1719.8242a1.5375,1.5375,0,0,1-1.1723-.3731,1.5574,1.5574,0,0,1-.523-1.1l-.2031-5.1807a1.5432,1.5432,0,0,1,1.3042-1.5918,119.5248,119.5248,0,0,1,15.2583-1.58c9.5,0,13.9219,4.3994,13.9219,13.8321m-18.3443,10.31c-3.664.3457-5.4057,2.02-5.4057,5.2461,0,1.9824.5469,5.332,4.18,5.332a47.13,47.13,0,0,0,10.2343-1.6464v-9.41Zm48.6392-23.4707c-4.123.2461-8.1821,2.6025-10.7109,4.3965V56.1318a1.5464,1.5464,0,0,0-1.5552-1.5459h-6.2319a1.547,1.547,0,0,0-1.5552,1.5459V93.89a1.5511,1.5511,0,0,0,1.5552,1.5507H167.74A1.55,1.55,0,0,0,169.295,93.89V67.793c1.4077-1.1719,5.76-4.4385,10.9467-4.8956a1.552,1.552,0,0,0,1.4141-1.5449V55.8193a1.4958,1.4958,0,0,0-.4917-1.123,1.4756,1.4756,0,0,0-1.1582-.4219" style="fill:#0c3c7c"/><path d="M280.1446,108.7549l-4.8008,5.6973-1.4961-1.2969,4.9648-5.5313c-.7861-.7285-1.3867-1.3847-2.1484-2.0625l1.1055-1.1093c1.8906,1.7871,3.5547,3.1718,5.6406,4.8515l-.957,1.2227c-.76-.5957-1.543-1.168-2.3086-1.7715m-9.6231-14.17-7.789,4.5488c.2793.5449.58,1.1855.9218,1.7109l7.8047-4.5605c-.3808-.6875-.5957-1.0547-.9375-1.6992m4.9981,7.2636-4.2188,3.6465,2.15-6.25c-.3808-.5351-.5566-.9082-.9551-1.4l-7.5625,5.1309c.3379.5078.752.9766,1.1114,1.5019l4.5468-3.15-2.1328,6.2968a11.3824,11.3824,0,0,0,1.2637,1.4766l6.9961-6a14.5555,14.5555,0,0,1-1.1992-1.252m10.2656,11.1758c1.2285.668,2.43,1.3653,3.7734,2.002l.8067-1.334a46.82,46.82,0,0,1-5.1719-3.1465l-5.1348,7.5352c1.9473,1.289,3.7266,2.3652,5.7266,3.5195l.8281-1.33-4.1406-2.4394,1.3984-1.9649,2.7422,1.6485.7989-1.2813c-.8809-.4844-1.7989-1.043-2.76-1.6309Zm25.3906-28.0879a12.9092,12.9092,0,1,1,12.8828-12.8984,12.9386,12.9386,0,0,1-12.8828,12.8984m.16-4.2656a8.5448,8.5448,0,0,0,2.1074-16.834c-.0469-.3847-.15-2.1738-.15-2.1738h-4.3262s-.1,1.9434-.1347,2.33a8.4414,8.4414,0,0,0-6.0137,8.0986,8.6,8.6,0,0,0,8.5176,8.5791m-18.9492-57.35v-.4238a4.384,4.384,0,0,1,4.0937-4.4434,4.4746,4.4746,0,0,1,4.9,4.082v.3614a4.5563,4.5563,0,0,1-4.15,4.5429,4.5023,4.5023,0,0,1-4.8437-4.1191m1.6523-.16a2.8768,2.8768,0,0,0,3.09,2.6455,2.9094,2.9094,0,0,0,2.664-2.9091c.0547-.0762,0-.1641,0-.2647a2.8262,2.8262,0,0,0-3.1308-2.5947,2.7558,2.7558,0,0,0-2.6231,2.8594Zm18.7774,2.2315c-.7579-.0078-1.1075-.0078-1.85-.0078l2.2481-4.6641,2.0391-4.2373,2.0234.209,1.0625,4.0283,1.4687,5.4141a13.9439,13.9439,0,0,0-1.8515-.2666l-.5235-1.6973a33.2659,33.2659,0,0,0-3.7812-.3252Zm1.5-3.0713c.9843.0469,1.8984.1562,2.82.2871l-.4844-1.8877-.6094-1.9443-.914,1.9443Zm-8.9844-4.0254.7969,7.3857,1.9394-.2041-.76-7.33,2.9336-.1807-.1113-1.6455a70.072,70.072,0,0,0-7.8672.8047l.2168,1.5625Zm.3066,99.9785-.6582,5.5117-2.6484-6.0449c-.6211-.1211-1.0078-.2812-1.6328-.3808l-2.0782,8.914c.6426.1719,1.26.24,1.9219.3555l1.1133-5.4746,2.6836,6.1a11.2635,11.2635,0,0,0,2.0078.2656l.9941-9.207a15.2311,15.2311,0,0,1-1.7031-.0391m52.3574-19.1406-6.6211-3.6465-.8476,1.5254,7.9453,4.4355,3.0625-5.4882-1.3652-.73Zm-9.9843,1.334,9.0156,2.9609c-.2109.2676-.3789.5235-.57.793a3.7159,3.7159,0,0,0-.4688.6719l-1.5781-.5684-2.4609,3.0742.8984,1.4082c-.3672.418-.7812.8711-1.25,1.334l-3.57-5.92-1.32-2.1817Zm1.0254,2.0644,1.0683,1.6895.9785,1.7031,1.3184-1.7031.3437-.4238Zm-9.4727,12.0489a4.9374,4.9374,0,0,1,.6035,2.2558,4.5741,4.5741,0,0,1-.3906,1.8418,4.91,4.91,0,0,1-1.9141,2.0938,4.5043,4.5043,0,0,1-6.1406-1.68,2.6366,2.6366,0,0,0-.1875-.4141,5.7946,5.7946,0,0,1-.4375-1.8418,4.5384,4.5384,0,0,1,8.4668-2.2558m-1.0215,2.2558a3.0278,3.0278,0,0,0-.3965-1.4961,2.902,2.902,0,0,0-5.4,1.4961,3.12,3.12,0,0,0,.4219,1.4375,2.2367,2.2367,0,0,0,.3125.4356,2.8429,2.8429,0,0,0,3.59.5957,2.7349,2.7349,0,0,0,.7929-.5957,3.0361,3.0361,0,0,0,.68-1.8731m4.3516-10.7715,3.75,4.043L340.35,108.251c-.5235.3984-.875.5371-1.3379.9414l5.4785,7.3633c.4668-.3633.9512-.8067,1.3887-1.18l-3.3243-4.43,6.3575,1.9141a10.8411,10.8411,0,0,0,1.49-1.3457l-6.3418-6.7051c-.3379.3672-.7285.85-1.166,1.2558m40.3359-33.9736a17.96,17.96,0,0,1-.1328,2.3545l-.0234.1816-.1953.1a23.1635,23.1635,0,0,1-10.9825,2.9688c-.0957.5019-.5254,4.0859-.6,4.59a22.6256,22.6256,0,0,1,9.7852,5.6719l.1015.16v.164a18.7272,18.7272,0,0,1-1.25,4.5313l-.0625.1933-.18.0293a22.4978,22.4978,0,0,1-11.336.0254c-.18.4688-1.5781,3.7989-1.7187,4.2832a22.9265,22.9265,0,0,1,7.8906,8.045l.0859.1718-.0547.18a19.1168,19.1168,0,0,1-2.3515,4.0547l-.0918.16h-.2188a22.642,22.642,0,0,1-10.9453-2.9317c-.3144.4121-2.6191,3.4571-2.9316,3.8672a21.9888,21.9888,0,0,1,5.6172,9.8535l.0547.1817-.1016.1269a21.501,21.501,0,0,1-3.2949,3.3438l-.125.1074-.26-.0508a23.3384,23.3384,0,0,1-9.8047-5.6738c-.414.3125-3.2715,2.5449-3.6953,2.8613a23.0961,23.0961,0,0,1,2.94,10.6856v.4843l-.2129.1192a18.8867,18.8867,0,0,1-4.0547,2.375l-.125.0527-.2071-.0684a23.5821,23.5821,0,0,1-8.0117-8.0351c-.4843.2129-3.9609,1.7012-4.4355,1.91a26.3455,26.3455,0,0,1,.81,5.7266,21.8618,21.8618,0,0,1-.81,5.6367l-.0254.1739-.1875.1015a24.8374,24.8374,0,0,1-4.4922,1.209l-.2109.0293-.1172-.1465a22.1243,22.1243,0,0,1-5.7246-9.8164c-.4707.0352-4.0723.5234-4.58.6289a22.3336,22.3336,0,0,1-3,10.959l-.1.1621-.2129.0274a18.8244,18.8244,0,0,1-4.6172,0l-.168-.0274-.1211-.1621a23.2429,23.2429,0,0,1-2.9687-10.959c-.5371-.0527-4.332-.5937-4.8594-.6289a22.6723,22.6723,0,0,1-5.6484,9.8027l-.1367.1309-.2129-.0312a21.4752,21.4752,0,0,1-4.5-1.2637l-.1485-.0723-.0625-.1582a19.9344,19.9344,0,0,1-.7949-5.6523,22.5266,22.5266,0,0,1,.7539-5.67c-.4844-.2089-3.7656-1.539-4.24-1.7519a22.7141,22.7141,0,0,1-8.0547,8.0644l-.1641.0918-.1972-.0527a23.9267,23.9267,0,0,1-4.0606-2.3594l-.1328-.1328v-.3691a23.3669,23.3669,0,0,1,2.9121-10.8008c-.4062-.3164-3.4687-2.6426-3.8887-2.957a22.85,22.85,0,0,1-9.8281,5.625l-.1777.0547-.19-.1231a23.9171,23.9171,0,0,1-3.2656-3.2988l-.1152-.1875.0508-.1817a22.9056,22.9056,0,0,1,5.6718-9.7929c-.3086-.418-2.625-3.42-2.9531-3.8711a22.0945,22.0945,0,0,1-10.9453,2.93h-.1885l-.1221-.1211a22.6667,22.6667,0,0,1-2.3515-4.086l-.08-.1855.08-.1641a23.0008,23.0008,0,0,1,8.0215-7.9961c-.2149-.5117-1.6328-3.8652-1.8731-4.3379a22.8265,22.8265,0,0,1-11.35,0l-.168-.0527-.1015-.1562a24.04,24.04,0,0,1-1.1914-4.51l-.0391-.2168.125-.1621a23.2253,23.2253,0,0,1,9.8359-5.7149c-.041-.5293-.5976-4.3418-.6523-4.8691a22.5847,22.5847,0,0,1-11.0088-2.9082l-.1553-.1016-.0136-.2129a18.8136,18.8136,0,0,1-.1114-2.3271,19.6745,19.6745,0,0,1,.1114-2.334l.0136-.2129.1553-.0849a22.8361,22.8361,0,0,1,11.0088-2.9336c.082-.52.5508-4.2276.6113-4.7276a23.1844,23.1844,0,0,1-9.85-5.6768l-.1054-.125.0351-.1982a17.5983,17.5983,0,0,1,1.2305-4.5127l.0586-.1719.1855-.0527a22.4619,22.4619,0,0,1,11.3438-.0469c.2109-.4619,1.5957-3.8047,1.8047-4.3066a22.99,22.99,0,0,1-8.045-8.0283l-.0879-.1983.0879-.1865a24.6794,24.6794,0,0,1,2.3164-4.0068l.127-.1592h.2129a22.6383,22.6383,0,0,1,10.9453,2.9326c.3184-.3818,2.6445-3.5273,2.9609-3.9453a22.74,22.74,0,0,1-5.6367-9.8516l-.039-.15.0742-.1543a23.9334,23.9334,0,0,1,3.3515-3.3233l.168-.1045.1582.0313a22.6962,22.6962,0,0,1,9.8379,5.6855c.4023-.32,3.1719-2.4541,3.582-2.7656a22.2472,22.2472,0,0,1-2.9687-10.6719v-.52l.1758-.1221A19.68,19.68,0,0,1,277.1172,8.68l.1328-.084.209.0908a23.1318,23.1318,0,0,1,8.0137,8.0059c.4863-.1826,4.0859-1.7461,4.58-1.9434a22.0524,22.0524,0,0,1-.7344-5.7051,19.5283,19.5283,0,0,1,.7656-5.6269l.0254-.2168.1856-.0488a22.32,22.32,0,0,1,4.4609-1.2168l.2188-.0274.1582.1367a22.74,22.74,0,0,1,5.6953,9.8467c.5273-.0537,4.31-.53,4.8164-.622a22.64,22.64,0,0,1,3-10.9336l.08-.1621L308.918.12a22.705,22.705,0,0,1,4.6641,0l.1738.0528.1094.1621a21.6045,21.6045,0,0,1,2.9453,10.8984c.5684.127,4.2637.6035,4.791.6572a22.8562,22.8562,0,0,1,5.7227-9.8291l.1172-.1269.1718.0527A17.8716,17.8716,0,0,1,332.1524,3.2l.15.06.06.2129a19.1427,19.1427,0,0,1,.7832,5.5712,25.5256,25.5256,0,0,1-.7832,5.7442c.4688.1914,4.0625,1.6953,4.5625,1.9043a22.6607,22.6607,0,0,1,7.9766-8.0059l.18-.0908.1875.084a20.4392,20.4392,0,0,1,4.0254,2.3525l.1582.0977v.4844a22.5653,22.5653,0,0,1-2.9492,10.707c.3984.3115,3.3671,2.6328,3.8125,2.9746a22.2977,22.2977,0,0,1,9.8535-5.6553l.1562-.0859.1543.1641a19.5263,19.5263,0,0,1,3.2813,3.3212l.1484.1563-.0625.18a22.8018,22.8018,0,0,1-5.6875,9.8359c.3125.4287,2.5469,3.3711,2.8906,3.7959A23.0429,23.0429,0,0,1,372.043,34.126h.1641l.1172.1582A19.6575,19.6575,0,0,1,374.668,38.29l.1172.2276-.1172.1709a23.4408,23.4408,0,0,1-8.0312,7.9951c.2031.5068,1.5625,3.8623,1.8222,4.332a22.5914,22.5914,0,0,1,11.2871,0l.2032.041.0781.1963a21.3629,21.3629,0,0,1,1.2129,4.5332l.0293.1738-.1406.14a22.3617,22.3617,0,0,1-9.8321,5.6924c.0742.5176.543,4.1807.6309,4.7012a22.8925,22.8925,0,0,1,10.9512,2.955l.1953.1153.0234.1855a17.4754,17.4754,0,0,1,.1328,2.3428M275.0528,30.085l5.914,6.5879c.8262.8886,1.7364.7793,2.9317-.1553a44.674,44.674,0,0,1,54.6445,0c1.18.8711,2.0645,1.0439,2.93.1553l5.918-6.5879c.67-.7286.67-1.7325-.6133-2.8067a57.7245,57.7245,0,0,0-35.625-12.49,57.1,57.1,0,0,0-35.543,12.5254c-1.2754,1.039-1.2187,2.0429-.5566,2.7715m.4,27.705c-.6524-.4219-1.3457-.9033-1.9141-.6513-.4629.14-.8008.625-1.043,1.4121a44.7756,44.7756,0,0,0,0,26.9775c.1875.6114.3985,1.2207.9551,1.375.4551.1895,1.127,0,2.002-.6035l18.3086-12.4726a2.2219,2.2219,0,0,0,1.0937-1.76,2.2507,2.2507,0,0,0-1.0937-1.81Zm4.0058-10.914c.084.6679.8438,1.0087,1.5078,1.32l19.9512,9.6924a2.3294,2.3294,0,0,0,2.1328.0654,2.281,2.281,0,0,0,.9766-1.8545l1.6113-22.1328c.0879-1.0693-.0625-1.6963-.4472-2.0244a1.9528,1.9528,0,0,0-1.6465-.15,44.815,44.815,0,0,0-23.4,13.5039c-.5547.6269-.8125,1.1543-.6856,1.58m.2891,50.6094a2.1909,2.1909,0,0,0,.74,1.3535,43.99,43.99,0,0,0,23.3828,13.49,1.792,1.792,0,0,0,1.6348-.0547c.4316-.3222.5547-.9863.4824-2.0312,0-.0332-1.625-22.18-1.625-22.18a2.1623,2.1623,0,0,0-.9746-1.8184,2.2583,2.2583,0,0,0-2.1347.0137l-19.93,9.7012c-.6953.3242-1.4493.6894-1.5528,1.3418,0,.0429-.0234.1269-.0234.1836m31.4277-11.1543a14.3116,14.3116,0,1,0-14.2949-14.293,14.3083,14.3083,0,0,0,14.2949,14.293m6.0469,25.6211a2,2,0,0,0,1.7441.1308,44.4982,44.4982,0,0,0,23.334-13.4746c.4063-.4707.8516-.9551.7188-1.4922-.125-.5156-.5625-.9824-1.4922-1.42L321.545,85.999a2.3123,2.3123,0,0,0-2.1035-.039,2.2564,2.2564,0,0,0-1,1.8769l-1.6153,22.1192c-.0156.7246-.1015,1.5507.3965,1.9961M347.02,86.1709c.5937.3848,1.2812.8516,1.9062.6348.4239-.1289.7891-.5938,1.0235-1.4317a44.334,44.334,0,0,0,0-26.9512,2.1237,2.1237,0,0,0-.9375-1.415c-.4981-.1787-1.125.0264-2.0215.6348L328.668,70.1006a2.1835,2.1835,0,0,0-1.07,1.7988,2.16,2.16,0,0,0,1.07,1.7871Zm-4.0391-39.6485a1.9584,1.9584,0,0,0-.74-1.38,44.0757,44.0757,0,0,0-23.3848-13.5078,1.7162,1.7162,0,0,0-1.5781.1006c-.43.3437-.5527,1.0078-.4668,2.0019l1.58,22.1816a1.9851,1.9851,0,0,0,3.1054,1.7608l19.9766-9.6416c.6406-.3106,1.3691-.6494,1.5078-1.3321a.468.468,0,0,0,0-.1836M257.6836,86.11l8.502-2.4688a2.0462,2.0462,0,0,0,1.3906-2.1094c-3.0527-15.8359.8252-28.6738,10.1074-38.9648a1.9531,1.9531,0,0,0,.1426-2.9824l-6.1816-6.2129c-.6-.6875-1.6914-.6875-2.6289.2685C257.17,46.1084,251.1875,65.2432,255.5762,84.8057a1.6215,1.6215,0,0,0,2.1074,1.3047M363.379,90.6611l-8.5235-2.91c-.4453-.166-1.6094-.166-2.2187,1.334a44.7541,44.7541,0,0,1-82.9453-.2578,1.7254,1.7254,0,0,0-2.1407-1.0762l-8.4765,2.91a1.6142,1.6142,0,0,0-.99,2.3262,57.064,57.064,0,0,0,106.2989-.09,1.5819,1.5819,0,0,0-1.0039-2.2364m-9.8516-57.1064a1.6435,1.6435,0,0,0-2.6172-.1572l-6.16,6.1875a1.9515,1.9515,0,0,0,.1211,2.9824c9.2969,10.291,13.1817,23.1016,10.1329,38.9648a2.0279,2.0279,0,0,0,1.3984,2.1094L364.918,86.11a1.6119,1.6119,0,0,0,2.1016-1.3379c4.3828-19.5293-1.6172-38.7286-13.4922-51.2178m-19.8438-2.31,1.961-3.7763,5.291-2.459c-.5566-.3994-1.1582-.6787-1.7168-1.0459l-3.6445,1.66-.6719-3.957c-.7617-.36-1.2188-.52-2.0117-.84l1.06,5.7558-1.9629,3.7305Zm-9.914,85.6582c-2.6387.5782-4.67,1.0586-7.2871,1.4649l.2422,1.5195c.9687-.1523,1.8535-.2676,2.875-.3965l1.32,7.3223,1.9433-.3672-1.5761-7.3008c1-.248,1.92-.5,2.914-.7324Zm-25.93,1.2813v.4941a2.8033,2.8033,0,0,1-2.2891,2.5918l.3086,4.2227a11.9316,11.9316,0,0,1-1.9726-.625l-.07-3.9727-1.7852-.7637-1.4473,3.5059a13.3392,13.3392,0,0,1-1.7422-.6621l1.834-4.2656.2188-.5254,1.4922-3.52,4.0644,1.5684a2.1482,2.1482,0,0,1,1.3887,1.9512m-1.7031,0a.7586.7586,0,0,0-.4688-.6l-2.2734-.8379-.5137,1.4375-.1816.5254-.0157.0332,2.0723.7754c.5684.2519,1.1172-.2539,1.3145-.8086a.7544.7544,0,0,0,.0664-.5254m27.5781-91.126c-.7266-.2109-1.2637-.3008-2.0625-.5283l1.4726-5.0225,1.0762-3.58c1.5528.3858,3.0293.89,4.5059,1.37a2.3664,2.3664,0,0,1,1.3691,2.21,2.9636,2.9636,0,0,1-2.0058,3.1651l.5371,4.0478c-.6485-.2685-1.127-.47-1.8457-.7519l-.4688-3.5372-1.7324-.5322Zm1.2441-4.7373,2.0293.6543c.5547.1592,1.2891-.71,1.2891-1.4678a.7121.7121,0,0,0-.6094-.7871,16.0434,16.0434,0,0,0-2.082-.625l-.418,1.4121Zm-9.8535,100.1719,1.9629,4.7617c-.6426.0273-1.24.0918-1.8144.1582l-.6055-1.5391-3.9258.1094-.4492,1.6094c-.627-.0547-1.2129-.0723-1.836-.0723l1.6934-5.0273,1.2051-3.8145.0586-.1211,2.0019-.09.1016.2422Zm-1.1875,1.7324-.7031-1.7324-.7109-1.875-.6172,1.875-.6075,1.8476Zm12-8.0879,3.002,8.57c.584-.2031,1.2109-.3808,1.8027-.6387l-2.9121-8.5312c-.7988.2715-1.166.3809-1.8926.6M282.3516,25.7549l-.5019-.9024c1.32-.8369,2.74-1.5644,4.1093-2.2959,1.6114-.89,3.8848,1.2647,3.7246,3.1983a2.0439,2.0439,0,0,1-.3261.9639l3.2949,2.3974c-.6211.291-1.0918.5391-1.832.8613l-2.8868-2.1093-1.5918.8525,1.6954,2.8037c-.6563.418-1.0547.6778-1.8223,1.125Zm1.9883-.4258.25.4258.918,1.5869,1.9043-1a.7179.7179,0,0,0,.3125-.5869c.0371-.8594-.584-2.0235-1.4864-1.48-.7031.3672-1.1308.6211-1.8984,1.0547" style="fill:#f7a81b"/><path d="M368.1192,129.9346h.5625a7.381,7.381,0,0,0,1.5029-.09.8151.8151,0,0,0,.4639-.3242.9507.9507,0,0,0,.168-.5215.8384.8384,0,0,0-.168-.5078.9332.9332,0,0,0-.4717-.334,6.7341,6.7341,0,0,0-1.4951-.0937h-.5625Zm-1.3975,3.9062v-6.8672h1.3975c1.3066,0,2.0361.0079,2.1963.0176a2.68,2.68,0,0,1,1.082.2793,1.6235,1.6235,0,0,1,.6377.65,1.9031,1.9031,0,0,1,.2568.9824,1.8273,1.8273,0,0,1-.4882,1.2735,2.1862,2.1862,0,0,1-1.36.65,1.567,1.567,0,0,1,.4814.2617,3.9739,3.9739,0,0,1,.4649.5371c.0469.0586.22.3359.5088.8242l.8115,1.3906h-1.7275l-.5743-1.1191a4.825,4.825,0,0,0-.96-1.4141,1.5535,1.5535,0,0,0-.9717-.289h-.3574v2.8222Zm2.9365-8.66a5.3277,5.3277,0,0,0-2.5625.6621,4.8,4.8,0,0,0-1.9287,1.9219,5.203,5.203,0,0,0-.0175,5.207,4.9234,4.9234,0,0,0,1.916,1.9238,5.1849,5.1849,0,0,0,5.1806,0,4.9676,4.9676,0,0,0,1.918-1.9238,5.1513,5.1513,0,0,0,.6963-2.5957,5.2215,5.2215,0,0,0-.7119-2.6113,4.8087,4.8087,0,0,0-1.9248-1.9219,5.3471,5.3471,0,0,0-2.5655-.6621m-.0156-1.2735a6.6239,6.6239,0,0,1,3.1992.84,5.9866,5.9866,0,0,1,2.4024,2.3828,6.4394,6.4394,0,0,1,.0107,6.4668,6.1114,6.1114,0,0,1-2.3838,2.3906,6.4832,6.4832,0,0,1-6.4443,0,6.0459,6.0459,0,0,1-2.3877-2.3906,6.4775,6.4775,0,0,1,.0107-6.4668,5.9826,5.9826,0,0,1,2.4053-2.3828,6.6375,6.6375,0,0,1,3.1875-.84" style="fill:#f6a71b"/></g></g></svg>